<svg width="87" height="87" viewBox="0 0 87 87" fill="none" xmlns="http://www.w3.org/2000/svg">
<path fill-rule="evenodd" clip-rule="evenodd" d="M9.96875 23.5625V14.5C9.96875 13.2965 10.4472 12.1474 11.2955 11.2955C12.1474 10.4472 13.2965 9.96875 14.5 9.96875H23.5625C25.0632 9.96875 26.2812 8.75075 26.2812 7.25C26.2812 5.74925 25.0632 4.53125 23.5625 4.53125H14.5C11.8574 4.53125 9.31988 5.5825 7.44938 7.44938C5.5825 9.31988 4.53125 11.8574 4.53125 14.5V23.5625C4.53125 25.0632 5.74925 26.2812 7.25 26.2812C8.75075 26.2812 9.96875 25.0632 9.96875 23.5625Z" fill="#204B9E"/>
<path fill-rule="evenodd" clip-rule="evenodd" d="M77.0312 63.4375V72.5C77.0312 73.7035 76.5528 74.8526 75.7045 75.7045C74.8526 76.5528 73.7035 77.0312 72.5 77.0312H63.4375C61.9367 77.0312 60.7188 78.2493 60.7188 79.75C60.7188 81.2507 61.9367 82.4688 63.4375 82.4688H72.5C75.1426 82.4688 77.6801 81.4175 79.5506 79.5506C81.4175 77.6801 82.4688 75.1426 82.4688 72.5V63.4375C82.4688 61.9367 81.2507 60.7188 79.75 60.7188C78.2493 60.7188 77.0312 61.9367 77.0312 63.4375Z" fill="#204B9E"/>
<path fill-rule="evenodd" clip-rule="evenodd" d="M58 4.53125C44.4969 4.53125 33.5312 15.4969 33.5312 29C33.5312 42.5031 44.4969 53.4688 58 53.4688C71.5031 53.4688 82.4688 42.5031 82.4688 29C82.4688 15.4969 71.5031 4.53125 58 4.53125ZM58 9.96875C68.5052 9.96875 77.0312 18.4948 77.0312 29C77.0312 39.5052 68.5052 48.0312 58 48.0312C47.4948 48.0312 38.9688 39.5052 38.9688 29C38.9688 18.4948 47.4948 9.96875 58 9.96875Z" fill="#204B9E"/>
<path fill-rule="evenodd" clip-rule="evenodd" d="M39.9399 41.8651C39.001 42.9055 39.0083 44.486 39.9544 45.5191C44.4313 50.4056 50.8584 53.4687 57.9996 53.4687C65.1481 53.4687 71.5825 50.3984 76.0594 45.5046C77.0381 44.4352 77.0019 42.7822 75.9796 41.7527C75.8093 41.5824 75.6389 41.4084 75.4685 41.2344C71.0243 36.7031 64.84 33.8937 57.9996 33.8937C51.1593 33.8937 44.975 36.7031 40.5308 41.2344C40.335 41.4374 40.1356 41.6476 39.9399 41.8651Z" fill="#204B9E"/>
<path fill-rule="evenodd" clip-rule="evenodd" d="M10.9543 70.847C10.0009 71.8837 10.0009 73.4787 10.9543 74.5191C15.4275 79.402 21.8583 82.4687 28.9995 82.4687C36.148 82.4687 42.5824 79.3984 47.0593 74.5046C48.038 73.4352 48.0018 71.7822 46.9795 70.7527C46.8092 70.5824 46.6388 70.4084 46.4684 70.2344C42.0242 65.7031 35.8399 62.8937 28.9995 62.8937C22.1592 62.8937 15.9749 65.7031 11.5307 70.2344C11.3349 70.4337 11.1428 70.6367 10.9543 70.847Z" fill="#204B9E"/>
<path d="M58 34.4375C63.0051 34.4375 67.0625 30.3801 67.0625 25.375C67.0625 20.3699 63.0051 16.3125 58 16.3125C52.9949 16.3125 48.9375 20.3699 48.9375 25.375C48.9375 30.3801 52.9949 34.4375 58 34.4375Z" fill="#204B9E"/>
<path d="M29 63.4375C34.0051 63.4375 38.0625 59.3801 38.0625 54.375C38.0625 49.3699 34.0051 45.3125 29 45.3125C23.9949 45.3125 19.9375 49.3699 19.9375 54.375C19.9375 59.3801 23.9949 63.4375 29 63.4375Z" fill="#204B9E"/>
<path fill-rule="evenodd" clip-rule="evenodd" d="M53.4361 56.724C53.4579 57.1481 53.4688 57.5723 53.4688 58C53.4688 71.5031 42.5031 82.4688 29 82.4688C15.4969 82.4688 4.53125 71.5031 4.53125 58C4.53125 44.4969 15.4969 33.5312 29 33.5312C29.4277 33.5312 29.8519 33.5421 30.276 33.5639C30.595 35.5105 31.1134 37.3883 31.8094 39.1754C30.8922 39.0376 29.9534 38.9688 29 38.9688C18.4948 38.9688 9.96875 47.4948 9.96875 58C9.96875 68.5052 18.4948 77.0312 29 77.0312C39.5052 77.0312 48.0312 68.5052 48.0312 58C48.0312 57.0466 47.9624 56.1078 47.8246 55.1906C49.6154 55.8866 51.4931 56.405 53.4361 56.724Z" fill="#204B9E"/>
</svg>
