<svg width="78" height="78" viewBox="0 0 78 78" fill="none" xmlns="http://www.w3.org/2000/svg">
<path d="M69.0625 9.75H8.9375C4.00725 9.75 0 13.7573 0 18.6875V59.3125C0 64.2427 4.00725 68.25 8.9375 68.25H69.0625C73.9928 68.25 78 64.2427 78 59.3125V18.6875C78 13.7573 73.9928 9.75 69.0625 9.75ZM24.375 22.75C28.8535 22.75 32.5 26.3965 32.5 30.875C32.5 35.3535 28.8535 39 24.375 39C19.8965 39 16.25 35.3535 16.25 30.875C16.25 26.3965 19.8965 22.75 24.375 22.75ZM39 52.8125C39 54.158 37.908 55.25 36.5625 55.25H12.1875C10.842 55.25 9.75 54.158 9.75 52.8125V51.1875C9.75 46.2573 13.7572 42.25 18.6875 42.25H30.0625C34.9927 42.25 39 46.2573 39 51.1875V52.8125ZM65.8125 55.25H47.9375C46.592 55.25 45.5 54.158 45.5 52.8125C45.5 51.467 46.592 50.375 47.9375 50.375H65.8125C67.158 50.375 68.25 51.467 68.25 52.8125C68.25 54.158 67.158 55.25 65.8125 55.25ZM65.8125 42.25H47.9375C46.592 42.25 45.5 41.158 45.5 39.8125C45.5 38.467 46.592 37.375 47.9375 37.375H65.8125C67.158 37.375 68.25 38.467 68.25 39.8125C68.25 41.158 67.158 42.25 65.8125 42.25ZM65.8125 29.25H47.9375C46.592 29.25 45.5 28.158 45.5 26.8125C45.5 25.467 46.592 24.375 47.9375 24.375H65.8125C67.158 24.375 68.25 25.467 68.25 26.8125C68.25 28.158 67.158 29.25 65.8125 29.25Z" fill="#204B9E"/>
</svg>
