<svg width="88" height="88" viewBox="0 0 88 88" fill="none" xmlns="http://www.w3.org/2000/svg">
<path d="M84.322 36.7563C84.322 25.661 75.3462 16.6222 64.2737 16.5201C61.8997 6.9522 53.2019 0 43.1412 0C31.1355 0 21.3682 9.76731 21.3682 21.773C21.3682 21.8764 21.3689 21.9798 21.3702 22.0839C21.2688 22.0819 21.1674 22.0812 21.0661 22.0812C11.4404 22.0812 3.60938 29.9116 3.60938 39.5372C3.60938 49.1629 11.4404 56.9939 21.0661 56.9939H23.0245V64.0777C19.9193 65.1532 17.683 68.1053 17.683 71.5717C17.683 75.9437 21.24 79.5007 25.612 79.5007C29.9847 79.5007 33.5417 75.9437 33.5417 71.5717C33.5417 68.1053 31.3047 65.1532 28.1995 64.0777V56.9939H41.3782V72.5768C38.273 73.6523 36.0359 76.6044 36.0359 80.0708C36.0359 84.4428 39.5929 87.9998 43.9657 87.9998C48.3377 87.9998 51.8947 84.4428 51.8947 80.0708C51.8947 76.6044 49.6584 73.6523 46.5532 72.5768V56.9939H59.7311V64.0777C56.626 65.1532 54.3896 68.1053 54.3896 71.5717C54.3896 75.9437 57.9466 79.5007 62.3187 79.5007C66.6914 79.5007 70.2484 75.9437 70.2484 71.5717C70.2484 68.1053 68.0113 65.1532 64.9062 64.0777V56.9758C75.6859 56.5427 84.322 47.6402 84.322 36.7563ZM25.6127 74.3264C24.0933 74.3264 22.858 73.0904 22.858 71.5717C22.858 70.0523 24.0933 68.817 25.6127 68.817C27.1314 68.817 28.3667 70.0523 28.3667 71.5717C28.3667 73.0904 27.1314 74.3264 25.6127 74.3264ZM43.9657 82.8248C42.447 82.8248 41.2117 81.5894 41.2117 80.0708C41.2117 78.5514 42.447 77.3161 43.9657 77.3161C45.485 77.3161 46.7204 78.5514 46.7204 80.0708C46.7204 81.5894 45.4843 82.8248 43.9657 82.8248ZM62.3193 74.3264C60.8 74.3264 59.5646 73.0904 59.5646 71.5717C59.5646 70.0523 60.8 68.817 62.3193 68.817C63.838 68.817 65.074 70.0523 65.074 71.5717C65.074 73.0904 63.838 74.3264 62.3193 74.3264Z" fill="#204B9E"/>
</svg>
