<svg width="81" height="81" viewBox="0 0 81 81" fill="none" xmlns="http://www.w3.org/2000/svg">
<path d="M22.314 1.39014L7.88379 15.8203H22.314V1.39014Z" fill="#204B9E"/>
<path d="M44.0674 17.7188C45.378 17.7188 46.4404 16.6563 46.4404 15.3457C46.4404 14.0351 45.378 12.9727 44.0674 12.9727C42.7568 12.9727 41.6943 14.0351 41.6943 15.3457C41.6943 16.6563 42.7568 17.7188 44.0674 17.7188Z" fill="#204B9E"/>
<path d="M67.4025 11.8655V62.0156C67.4025 68.5581 62.0798 73.8808 55.5373 73.8808H18.3438C18.3438 77.8063 21.5374 81 25.4629 81H67.3867C71.3122 81 74.5059 77.8063 74.5059 73.8808V18.9844C74.5059 15.0641 71.3208 11.8742 67.4025 11.8655Z" fill="#204B9E"/>
<path d="M55.5371 0H27.0605V18.1934C27.0605 19.5039 25.9981 20.5664 24.6875 20.5664H6.49414V62.0156C6.49414 65.9411 9.68779 69.1348 13.6133 69.1348H55.5371C59.4626 69.1348 62.6562 65.9411 62.6562 62.0156V7.11914C62.6562 3.19365 59.4626 0 55.5371 0ZM17.1729 28.793H28.2471C29.5576 28.793 30.6201 29.8555 30.6201 31.166C30.6201 32.4766 29.5576 33.5391 28.2471 33.5391H17.1729C15.8623 33.5391 14.7998 32.4766 14.7998 31.166C14.7998 29.8555 15.8623 28.793 17.1729 28.793ZM51.9775 62.0156H17.1729C15.8623 62.0156 14.7998 60.9531 14.7998 59.6426C14.7998 58.332 15.8623 57.2695 17.1729 57.2695H51.9775C53.2881 57.2695 54.3506 58.332 54.3506 59.6426C54.3506 60.9531 53.2881 62.0156 51.9775 62.0156ZM51.9775 52.5234H17.1729C15.8623 52.5234 14.7998 51.4609 14.7998 50.1504C14.7998 48.8398 15.8623 47.7773 17.1729 47.7773H51.9775C53.2881 47.7773 54.3506 48.8398 54.3506 50.1504C54.3506 51.4609 53.2881 52.5234 51.9775 52.5234ZM51.9775 43.0312H17.1729C15.8623 43.0312 14.7998 41.9688 14.7998 40.6582C14.7998 39.3476 15.8623 38.2852 17.1729 38.2852H51.9775C53.2881 38.2852 54.3506 39.3476 54.3506 40.6582C54.3506 41.9688 53.2881 43.0312 51.9775 43.0312ZM54.3506 31.166C54.3506 32.4766 53.2881 33.5391 51.9775 33.5391H36.1572C34.8467 33.5391 33.7842 32.4766 33.7842 31.166V28.002C33.7842 24.4717 35.5728 21.3519 38.2911 19.4993C37.4474 18.3293 36.9482 16.8951 36.9482 15.3457C36.9482 11.4202 40.1419 8.22656 44.0674 8.22656C47.9929 8.22656 51.1865 11.4202 51.1865 15.3457C51.1865 16.8951 50.6874 18.3294 49.8437 19.4993C52.5618 21.3519 54.3506 24.4717 54.3506 28.002V31.166Z" fill="#204B9E"/>
<path d="M44.0674 22.4648C41.0142 22.4648 38.5303 24.9488 38.5303 28.002V28.793H49.6045V28.002C49.6045 24.9488 47.1205 22.4648 44.0674 22.4648Z" fill="#204B9E"/>
</svg>
