<svg width="87" height="87" viewBox="0 0 87 87" fill="none" xmlns="http://www.w3.org/2000/svg">
<path d="M48.9375 19.0313H60.9272L46.2188 4.32281V16.3125C46.2188 17.8078 47.4422 19.0313 48.9375 19.0313Z" fill="#204B9E"/>
<path d="M16.3125 67.9688V38.0625C16.3125 33.5766 19.9828 29.9062 24.4688 29.9062H62.5312V24.4688H48.9375C44.4516 24.4688 40.7812 20.7984 40.7812 16.3125V2.71875H5.4375C3.94219 2.71875 2.71875 3.94219 2.71875 5.4375V81.5625C2.71875 83.0578 3.94219 84.2812 5.4375 84.2812H59.8125C61.3078 84.2812 62.5312 83.0578 62.5312 81.5625V76.125H24.4688C19.9828 76.125 16.3125 72.4547 16.3125 67.9688ZM21.75 13.5938C21.75 12.0984 22.9734 10.875 24.4688 10.875C25.9641 10.875 27.1875 12.0984 27.1875 13.5938V16.3125C27.1875 17.8078 25.9641 19.0312 24.4688 19.0312C22.9734 19.0312 21.75 17.8078 21.75 16.3125V13.5938ZM13.5938 19.0312C12.0984 19.0312 10.875 17.8078 10.875 16.3125V13.5938C10.875 12.0984 12.0984 10.875 13.5938 10.875C15.0891 10.875 16.3125 12.0984 16.3125 13.5938V16.3125C16.3125 17.8078 15.0891 19.0312 13.5938 19.0312Z" fill="#204B9E"/>
<path d="M53.0156 59.8125C56.7694 59.8125 59.8125 56.7694 59.8125 53.0156C59.8125 49.2618 56.7694 46.2188 53.0156 46.2188C49.2618 46.2188 46.2188 49.2618 46.2188 53.0156C46.2188 56.7694 49.2618 59.8125 53.0156 59.8125Z" fill="#204B9E"/>
<path d="M81.5625 35.3438H24.4688C22.9734 35.3438 21.75 36.5672 21.75 38.0625V67.9688C21.75 69.4641 22.9734 70.6875 24.4688 70.6875H81.5625C83.0578 70.6875 84.2812 69.4641 84.2812 67.9688V38.0625C84.2812 36.5672 83.0578 35.3438 81.5625 35.3438ZM33.9844 55.7344H31.2656C29.7703 55.7344 28.5469 54.5109 28.5469 53.0156C28.5469 51.5203 29.7703 50.2969 31.2656 50.2969H33.9844C35.4797 50.2969 36.7031 51.5203 36.7031 53.0156C36.7031 54.5109 35.4797 55.7344 33.9844 55.7344ZM53.0156 65.25C46.2731 65.25 40.7812 59.7581 40.7812 53.0156C40.7812 46.2731 46.2731 40.7812 53.0156 40.7812C59.7581 40.7812 65.25 46.2731 65.25 53.0156C65.25 59.7581 59.7581 65.25 53.0156 65.25ZM74.7656 55.7344H72.0469C70.5516 55.7344 69.3281 54.5109 69.3281 53.0156C69.3281 51.5203 70.5516 50.2969 72.0469 50.2969H74.7656C76.2609 50.2969 77.4844 51.5203 77.4844 53.0156C77.4844 54.5109 76.2609 55.7344 74.7656 55.7344Z" fill="#204B9E"/>
</svg>
