<svg width="267" height="26" viewBox="0 0 267 26" fill="none" xmlns="http://www.w3.org/2000/svg">
<g clip-path="url(#clip0_2010_2)">
<path d="M54.5675 12.99C54.5675 8.3975 58.1796 4.96619 62.7922 4.96619C66.1351 4.96619 68.5659 6.52514 69.9682 8.95599L66.6012 10.8042C65.8217 9.37787 64.4837 8.64259 62.7882 8.64259C60.514 8.64259 58.5774 10.4707 58.5774 12.99C58.5774 15.5092 60.518 17.3374 62.7882 17.3374C64.4837 17.3374 65.8177 16.578 66.6012 15.1516L69.9883 16.9999C68.586 19.4307 65.9101 21.0098 62.7882 21.0098C58.1756 21.0098 54.5635 17.5785 54.5635 12.986L54.5675 12.99Z" fill="#060D27"/>
<path d="M71.0371 15.6177C71.0371 12.7208 73.3313 10.2015 76.7667 10.2015C80.202 10.2015 82.5404 12.8092 82.2712 16.5298H74.5809C74.9144 17.4218 75.6296 17.9802 76.7667 18.0003C77.6345 17.9762 78.418 17.5985 78.7957 16.9758L81.4034 18.8481C80.3989 20.162 78.7957 21.0339 76.7667 21.0339C73.3354 21.0339 71.0371 18.5146 71.0371 15.6177ZM78.9283 14.4846C78.5707 13.7253 77.7912 13.1467 76.7667 13.1266C75.6979 13.1507 74.9385 13.7293 74.6492 14.4846H78.9283Z" fill="#060D27"/>
<path d="M83.7861 20.7888V10.4466H86.9965V10.9609C87.4424 10.5832 88.2902 10.2015 89.4474 10.2015C91.7416 10.2015 93.5497 11.9413 93.5497 14.1913V20.7888H90.2068V14.8824C90.2068 14.0346 89.7407 13.2351 88.6679 13.2351C87.7759 13.2351 87.1291 13.8579 87.1291 14.8824V20.7888H83.7861Z" fill="#060D27"/>
<path d="M100.279 20.9455C97.6474 20.9455 96.3778 19.6517 96.3778 17.2892V13.2311H94.6621V10.756H94.7505C95.976 10.756 97.1371 9.48637 97.1371 8.0359V7.9917H99.7207V10.4426H102.553V13.2271H99.7207V16.6825C99.7207 17.5945 100.235 17.8879 100.946 17.8879H102.549V20.9415H100.275L100.279 20.9455Z" fill="#060D27"/>
<path d="M104.559 20.7888V10.4467H107.725V11.4512C108.327 10.6275 109.372 10.3141 110.421 10.3141H111.224V13.4561H109.955C108.572 13.4561 107.861 14.2597 107.861 15.6619V20.7888H104.563H104.559Z" fill="#060D27"/>
<path d="M111.979 17.6267C111.979 15.8427 113.382 14.6614 115.435 14.6614H117.576C118.022 14.6614 118.292 14.4405 118.292 14.0146C118.292 13.6369 117.757 13.0543 116.62 13.0543C115.64 13.0543 114.993 13.5886 114.659 14.2114L112.297 12.6967C112.964 11.3587 114.527 10.2015 116.62 10.2015C120.007 10.2015 121.502 12.6083 121.502 14.7699V20.7888H118.38V20.4312C117.89 20.7647 117.155 21.0339 115.929 21.0339C113.434 21.0339 111.984 19.495 111.984 17.6226L111.979 17.6267ZM118.243 17.0682V16.9356H116.17C115.68 16.9356 115.347 17.249 115.347 17.695C115.347 18.1611 115.793 18.4986 116.484 18.4986C117.552 18.4986 118.243 17.8075 118.243 17.0722V17.0682Z" fill="#060D27"/>
<path d="M126.845 20.9454C124.326 20.9454 122.988 19.6316 122.988 16.9114V5.18713H126.331V16.823C126.331 17.4257 126.689 17.8275 127.581 17.8275V20.9495H126.845V20.9454Z" fill="#060D27"/>
<path d="M130.257 12.99C130.257 8.3975 133.889 4.96619 138.57 4.96619C143.251 4.96619 146.907 8.3975 146.907 12.99C146.907 17.5825 143.251 21.0138 138.57 21.0138C133.889 21.0138 130.257 17.5825 130.257 12.99ZM142.893 12.99C142.893 10.539 141.089 8.64259 138.57 8.64259C136.051 8.64259 134.267 10.535 134.267 12.99C134.267 15.4449 136.095 17.3374 138.57 17.3374C141.045 17.3374 142.893 15.4449 142.893 12.99Z" fill="#060D27"/>
<path d="M148.33 20.7888V10.4466H151.54V10.9609C151.986 10.5832 152.834 10.2015 153.991 10.2015C156.286 10.2015 158.094 11.9413 158.094 14.1913V20.7888H154.751V14.8824C154.751 14.0346 154.285 13.2351 153.212 13.2351C152.32 13.2351 151.673 13.8579 151.673 14.8824V20.7888H148.33Z" fill="#060D27"/>
<path d="M159.588 15.6177C159.588 12.7208 161.882 10.2015 165.317 10.2015C168.753 10.2015 171.091 12.8092 170.822 16.5298H163.132C163.465 17.4218 164.18 17.9802 165.317 18.0003C166.185 17.9762 166.965 17.5985 167.347 16.9758L169.954 18.8481C168.95 20.162 167.347 21.0339 165.317 21.0339C161.886 21.0339 159.588 18.5146 159.588 15.6177ZM167.475 14.4846C167.117 13.7253 166.338 13.1467 165.313 13.1266C164.245 13.1507 163.485 13.7293 163.196 14.4846H167.475Z" fill="#060D27"/>
<path d="M10.9085 22.6852C6.27982 21.512 8.19236 20.2142 10.0486 19.4628C11.0853 19.041 12.2424 19.0008 13.3072 19.3544C13.3795 19.3785 13.4558 19.4026 13.5362 19.4267C13.3433 19.2338 13.1424 19.041 12.9255 18.8521C9.16068 15.5092 6.46063 17.032 4.78516 19.1012C4.93382 20.8209 5.43204 21.6446 6.00661 22.645C6.70974 23.8665 5.70526 23.762 4.974 23.2236C4.96195 23.2156 4.94989 23.2035 4.93784 23.1955C6.89055 24.7384 9.23702 25.6786 11.6759 25.9277C12.2746 25.8152 15.1996 25.2848 15.3202 25.2446C15.8545 25.0719 16.8952 24.204 10.9045 22.6812L10.9085 22.6852Z" fill="#204B9E"/>
<path d="M18.6314 3.6965C17.0644 4.18267 16.297 4.38758 14.1996 3.92954C12.2228 3.49962 12.2831 2.95318 11.4715 2.36255C11.2746 3.56391 11.3469 5.0184 12.2992 6.24788C13.4845 7.77469 15.2001 7.13584 16.1524 9.32561C16.4658 10.0488 16.4015 10.7439 16.0921 11.3306C16.3613 11.8248 16.514 12.3953 16.514 12.998C16.514 14.4043 15.6863 15.6096 14.497 16.1722C14.9108 16.2364 15.3528 16.2606 15.8028 16.2485C17.3417 16.2123 18.8404 15.8387 20.2105 15.1878C20.106 14.4726 20.0497 13.7413 20.0497 12.994C20.0497 9.87205 21.002 6.97111 22.6293 4.56035C21.3315 3.44337 20.1261 3.2264 18.6314 3.69248V3.6965Z" fill="#204B9E"/>
<path d="M14.0108 0.0401932C12.7894 -0.0562371 11.5438 0.0201035 10.3224 0.277251C9.76386 0.401807 9.28573 0.542434 8.88795 0.662972C8.07232 0.936191 7.27275 1.29379 6.50131 1.73978C6.14371 1.94469 5.80219 2.16969 5.4687 2.40273C5.19146 2.64381 5.14325 2.75229 5.33209 2.59961C5.83433 2.18175 7.91963 1.53888 8.77143 1.57102C9.96074 1.61924 10.4791 1.71567 11.3188 2.25407C11.3751 2.29023 11.4273 2.32639 11.4755 2.36256C12.2871 2.95319 12.2269 3.49963 14.2037 3.92955C16.297 4.38759 17.0685 4.17866 18.6354 3.69651C20.1301 3.23445 21.3355 3.4474 22.6333 4.56438C22.6735 4.50813 22.7136 4.45188 22.7498 4.39563C20.4797 1.82013 17.3176 0.301358 14.0108 0.0401932Z" fill="#2A7EC2"/>
<path d="M20.9299 18.0767C20.271 18.7999 19.5397 19.3503 18.7562 19.6155C16.924 20.2423 14.8869 19.8526 13.5289 19.4267C13.4525 19.4026 13.3762 19.3785 13.2999 19.3544C12.2391 19.0008 11.082 19.041 10.0413 19.4628C8.18503 20.2142 6.27652 21.508 10.9011 22.6852C16.8919 24.204 15.8512 25.0759 15.3169 25.2487C15.1963 25.2888 12.2713 25.8192 11.6726 25.9317C13.3481 26.1045 15.0637 25.9558 16.7271 25.4576C16.912 25.4013 17.1008 25.3411 17.2856 25.2768C18.041 25.0116 18.7803 24.6741 19.4955 24.2602C20.7491 23.537 21.8339 22.633 22.742 21.6044C21.9906 20.5236 21.3759 19.3423 20.9259 18.0807L20.9299 18.0767Z" fill="#2A7EC2"/>
<path d="M4.16276 9.00418C1.15735 11.21 5.55297 1.66343 2.78462 4.9742C2.70426 5.07063 2.62792 5.16706 2.54756 5.27153C-0.429726 9.30553 -0.923931 14.8784 1.74397 19.499C2.18193 20.2624 2.6922 20.9575 3.25069 21.5923C3.76901 22.183 4.33553 22.7174 4.93822 23.1955C4.95028 23.2035 4.96233 23.2156 4.97439 23.2236C5.70565 23.762 6.71013 23.8665 6.00297 22.645C5.42841 21.6446 4.93019 20.8209 4.78152 19.1012C4.74938 18.7155 4.73331 18.2896 4.73733 17.8034C4.76144 15.1717 6.30834 12.8453 6.91906 11.3547C7.87533 9.02427 6.71817 7.12781 4.16276 9.00016V9.00418Z" fill="#2A7EC2"/>
<path d="M16.0958 11.3346C15.5012 10.2337 14.34 9.48633 13.002 9.48633C11.0614 9.48633 9.48633 11.0614 9.48633 12.998C9.48633 14.9346 11.0614 16.5097 13.002 16.5097C13.5364 16.5097 14.0427 16.3851 14.4967 16.1722C15.69 15.6096 16.5137 14.4003 16.5137 12.998C16.5137 12.3953 16.361 11.8288 16.0918 11.3306L16.0958 11.3346Z" fill="#2A7EC2"/>
<path d="M35.169 26.004C42.3498 26.004 48.171 20.1828 48.171 13.002C48.171 5.8212 42.3498 0 35.169 0C27.9882 0 22.167 5.8212 22.167 13.002C22.167 20.1828 27.9882 26.004 35.169 26.004Z" fill="#204B9E"/>
</g>
<path d="M199.131 20V11.68H200.523V13.488C200.662 13.136 200.848 12.8107 201.083 12.512C201.318 12.2027 201.611 11.9574 201.963 11.776C202.315 11.584 202.726 11.488 203.195 11.488C203.355 11.488 203.515 11.4987 203.675 11.52C203.835 11.5307 203.968 11.552 204.075 11.584L203.643 13.072C203.44 12.9867 203.2 12.944 202.923 12.944C202.528 12.944 202.15 13.056 201.787 13.28C201.435 13.504 201.142 13.8507 200.907 14.32C200.683 14.7894 200.571 15.3867 200.571 16.112V20H199.131Z" fill="#060D27"/>
<path d="M192.592 20.192C191.803 20.192 191.094 20.0107 190.464 19.648C189.835 19.2747 189.339 18.7627 188.976 18.112C188.624 17.4507 188.448 16.6934 188.448 15.84C188.448 14.944 188.63 14.1707 188.992 13.52C189.355 12.8694 189.851 12.368 190.48 12.016C191.11 11.664 191.814 11.488 192.592 11.488C193.371 11.488 194.07 11.664 194.688 12.016C195.318 12.368 195.814 12.8694 196.176 13.52C196.55 14.16 196.736 14.9227 196.736 15.808C196.736 16.6934 196.555 17.4667 196.192 18.128C195.83 18.7787 195.334 19.2854 194.704 19.648C194.086 20.0107 193.382 20.192 192.592 20.192ZM192.592 18.912C193.435 18.912 194.091 18.6294 194.56 18.064C195.03 17.488 195.264 16.7467 195.264 15.84C195.264 15.2854 195.147 14.7787 194.912 14.32C194.678 13.8507 194.358 13.4774 193.952 13.2C193.558 12.912 193.104 12.768 192.592 12.768C191.75 12.768 191.094 13.0454 190.624 13.6C190.155 14.1547 189.92 14.8907 189.92 15.808C189.92 16.3627 190.038 16.88 190.272 17.36C190.507 17.8294 190.822 18.208 191.216 18.496C191.622 18.7734 192.08 18.912 192.592 18.912Z" fill="#060D27"/>
<path d="M183.44 20V13.232H182.16V11.984H183.44V11.008C183.44 10.0694 183.701 9.32802 184.224 8.78402C184.747 8.24002 185.429 7.96802 186.272 7.96802C186.709 7.96802 187.093 8.02135 187.424 8.12802C187.755 8.22402 188.069 8.34668 188.368 8.49602L187.936 9.71202C187.712 9.59468 187.472 9.48802 187.216 9.39202C186.96 9.29602 186.677 9.24802 186.368 9.24802C185.92 9.24802 185.557 9.39202 185.28 9.68002C185.013 9.95735 184.88 10.368 184.88 10.912V11.984H187.344V13.232H184.88V20H183.44Z" fill="#060D27"/>
<path d="M258.126 5.31201H259.854V10.406H266.946V12.062H259.854V18.776H265.686V20.324H252.276V18.776H258.126V12.062H251.178V10.406H258.126V5.31201Z" fill="#060D27"/>
<path d="M244.77 9.01998H247.938V12.296H246.102V10.496H234.672V12.296H233.07V9.01998H243.114C243.438 8.35398 244.014 7.03998 244.734 5.29398L246.372 6.03198C245.886 6.91398 245.346 7.95798 244.77 9.01998ZM238.56 14.672H234.276V13.178H238.83C238.866 12.656 238.902 12.044 238.902 10.964H240.684C240.684 12.044 240.63 12.746 240.594 13.16H246.498C246.462 15.806 246.192 18.848 245.904 19.532C245.724 19.964 245.454 20.18 245.112 20.324C244.662 20.54 243.78 20.81 242.556 21.008C242.466 20.396 242.304 19.91 241.818 19.136H243.708C244.176 19.136 244.23 19.046 244.302 18.758C244.374 18.452 244.482 17.876 244.716 14.672H240.36C239.91 16.418 239.46 17.318 238.236 18.506C237.156 19.532 236.166 20.126 233.556 21.008C233.322 20.324 233.052 19.928 232.584 19.496C236.634 18.524 238.002 16.796 238.56 14.672ZM238.866 5.79798L240.27 5.20398C240.81 6.10398 241.242 7.05798 241.458 7.86798L239.964 8.49798C239.748 7.79598 239.46 7.03998 238.866 5.79798ZM234.672 6.12198L236.13 5.52798C236.526 6.33798 237.03 7.36398 237.264 8.08398L235.824 8.67798C235.626 8.04798 235.212 7.14798 234.672 6.12198Z" fill="#060D27"/>
<path d="M216.348 5.02405H218.058V7.94005H219.84L219.966 7.86805L221.028 8.91205C219.822 10.82 219.444 11.378 218.544 12.512C219.174 13.304 220.056 14.186 220.92 14.924C220.578 15.32 220.2 15.806 219.84 16.238C219.228 15.68 218.544 14.942 217.986 14.258V21.296H216.276V14.744C215.718 15.32 215.07 15.806 214.422 16.274C214.134 15.788 213.828 15.266 213.45 14.87C215.574 13.502 217.194 11.882 218.778 9.47005H214.098V7.94005H216.348V5.02405ZM224.034 5.07805H225.87V10.694H229.668V12.26H225.87V19.136H230.208V20.702H219.318V19.136H224.034V12.26H220.56V10.694H224.034V5.07805Z" fill="#060D27"/>
<defs>
<clipPath id="clip0_2010_2">
<rect width="170.842" height="26" fill="white"/>
</clipPath>
</defs>
</svg>
