<svg width="9" height="9" viewBox="0 0 9 9" fill="none" xmlns="http://www.w3.org/2000/svg">
<path d="M3.88916 0.353558C3.99522 0.247492 4.10129 0.212136 4.24271 0.212136C4.52555 0.212136 4.73769 0.424269 4.73769 0.707111L4.73769 7.77818C4.73769 8.06102 4.52555 8.27315 4.24271 8.27315C3.95987 8.27315 3.74774 8.06102 3.74774 7.77818L3.74774 0.707111C3.74774 0.565689 3.78309 0.459624 3.88916 0.353558Z" fill="#204B9E"/>
<path d="M0.707215 4.24264C0.919347 4.03051 1.20219 4.03051 1.41432 4.24264L4.24275 7.07106L7.07118 4.24264C7.28331 4.03051 7.56615 4.03051 7.77828 4.24264C7.99041 4.45477 7.99041 4.73761 7.77828 4.94974L4.5963 8.13172C4.38417 8.34386 4.10133 8.34386 3.8892 8.13172L0.707215 4.94974C0.495083 4.73761 0.495083 4.45477 0.707215 4.24264Z" fill="#204B9E"/>
</svg>
