<svg width="8" height="8" viewBox="0 0 8 8" fill="none" xmlns="http://www.w3.org/2000/svg">
<path d="M0.98271 0.982725C0.982752 0.632847 1.21567 0.400008 1.56552 0.399914L6.81565 0.399224C7.12796 0.399224 7.34516 0.585623 7.38879 0.874311C7.39692 0.914527 7.39943 0.955129 7.39846 0.995845V6.23285C7.39845 6.58283 7.16564 6.81567 6.81565 6.81567C6.46571 6.81563 6.23286 6.58281 6.23284 6.23285V2.38382L1.3922 7.22446C1.27553 7.34113 1.1584 7.39986 0.983401 7.39986C0.808715 7.39979 0.692487 7.34086 0.575986 7.22446C0.342652 6.99113 0.341962 6.64089 0.575295 6.40756L5.41663 1.56623H1.56621C1.21621 1.56623 0.98271 1.33272 0.98271 0.982725Z" fill="#060D27" fill-opacity="0.5"/>
</svg>
