<svg width="12" height="12" viewBox="0 0 12 12" fill="none" xmlns="http://www.w3.org/2000/svg">
<path d="M6.4714 11.1854C6.32998 11.3269 6.18856 11.374 5.99999 11.374C5.62287 11.374 5.34003 11.0912 5.34003 10.714L5.34003 1.28595C5.34003 0.908831 5.62287 0.625987 5.99999 0.625988C6.37712 0.625987 6.65996 0.90883 6.65996 1.28595L6.65996 10.714C6.65996 10.9026 6.61282 11.044 6.4714 11.1854Z" fill="#204B9E"/>
<path d="M10.7141 5.99972C10.4312 6.28257 10.0541 6.28257 9.77126 5.99972L6.00003 2.22849L2.22879 5.99972C1.94595 6.28257 1.56882 6.28257 1.28598 5.99972C1.00314 5.71688 1.00314 5.33976 1.28598 5.05692L5.52862 0.814274C5.81146 0.531431 6.18859 0.531432 6.47143 0.814274L10.7141 5.05692C10.9969 5.33976 10.9969 5.71688 10.7141 5.99972Z" fill="#204B9E"/>
</svg>
