<svg width="14" height="14" viewBox="0 0 14 14" fill="none" xmlns="http://www.w3.org/2000/svg">
<path d="M1.16637 7.53028C1.00727 7.37118 0.954237 7.21208 0.954237 6.99995C0.954237 6.57568 1.27244 6.25748 1.6967 6.25748H12.3033C12.7276 6.25748 13.0458 6.57568 13.0458 6.99995C13.0458 7.42421 12.7276 7.74241 12.3033 7.74241H1.6967C1.48457 7.74241 1.32547 7.68938 1.16637 7.53028Z" fill="white"/>
<path d="M7 12.3032C6.68181 11.985 6.68181 11.5607 7 11.2425L11.2426 6.99989L7 2.75725C6.68181 2.43905 6.68181 2.01479 7 1.69659C7.3182 1.37839 7.74247 1.37839 8.06066 1.69659L12.8336 6.46956C13.1518 6.78776 13.1518 7.21202 12.8336 7.53022L8.06066 12.3032C7.74247 12.6214 7.3182 12.6214 7 12.3032Z" fill="white"/>
</svg>
