<svg width="25" height="25" viewBox="0 0 25 25" fill="none" xmlns="http://www.w3.org/2000/svg">
<path d="M16.2634 5.6569C16.6539 5.26638 17.2871 5.26638 17.6776 5.6569C18.0682 6.04743 18.0682 6.68059 17.6776 7.07112L7.07103 17.6777C6.6805 18.0682 6.04734 18.0682 5.65681 17.6777C5.26629 17.2872 5.26629 16.654 5.65681 16.2635L16.2634 5.6569Z" fill="white"/>
<path d="M6.01027 7.42467C5.61974 7.03415 5.61974 6.40098 6.01027 6.01046C6.40079 5.61993 7.03396 5.61993 7.42448 6.01046L18.0311 16.6171C18.4216 17.0076 18.4216 17.6407 18.0311 18.0313C17.6406 18.4218 17.0074 18.4218 16.6169 18.0313L6.01027 7.42467Z" fill="white"/>
</svg>
