<svg width="28" height="24" viewBox="0 0 28 24" fill="none" xmlns="http://www.w3.org/2000/svg">
<path d="M7.82796 12.8172C8.97491 13.2186 9.8638 13.8781 10.4946 14.7957C11.1254 15.7133 11.4409 16.8315 11.4409 18.1505C11.4409 19.871 10.8961 21.276 9.80645 22.3656C8.71685 23.4552 7.36918 24 5.76344 24C4.10036 24 2.72401 23.4552 1.63441 22.3656C0.544803 21.2186 0 19.8136 0 18.1505C0 17.3477 0.0860213 16.5448 0.258064 15.7419C0.487455 14.8817 0.917563 13.6487 1.54839 12.043L5.5914 0H11.0108L7.82796 12.8172ZM24.086 12.8172C25.233 13.2186 26.1219 13.8781 26.7527 14.7957C27.3835 15.7133 27.6989 16.8315 27.6989 18.1505C27.6989 19.871 27.1541 21.276 26.0645 22.3656C24.9749 23.4552 23.6272 24 22.0215 24C20.3584 24 18.9821 23.4552 17.8925 22.3656C16.8029 21.2186 16.2581 19.8136 16.2581 18.1505C16.2581 17.3477 16.3441 16.5448 16.5161 15.7419C16.7455 14.8817 17.1756 13.6487 17.8065 12.043L21.8495 0H27.2688L24.086 12.8172Z" fill="#060D27" fill-opacity="0.2"/>
</svg>
