<svg width="10" height="10" viewBox="0 0 10 10" fill="none" xmlns="http://www.w3.org/2000/svg">
<path d="M8.88885 4.64647C8.99491 4.75254 9.03027 4.8586 9.03027 5.00002C9.03027 5.28287 8.81814 5.495 8.53529 5.495L1.46423 5.49499C1.18138 5.49499 0.969255 5.28286 0.969255 5.00001C0.969255 4.71717 1.18138 4.50504 1.46423 4.50504L8.53529 4.50505C8.67672 4.50505 8.78278 4.54041 8.88885 4.64647Z" fill="#204B9E"/>
<path d="M5.00008 1.46442C5.21221 1.67655 5.21221 1.95939 5.00008 2.17152L2.17165 4.99994L5.00008 7.82838C5.21221 8.04051 5.21221 8.32335 5.00008 8.53548C4.78795 8.74762 4.5051 8.74762 4.29297 8.53547L1.11099 5.35349C0.898863 5.14136 0.898863 4.85852 1.11099 4.64639L4.29297 1.46442C4.5051 1.25228 4.78795 1.25228 5.00008 1.46442Z" fill="#204B9E"/>
</svg>
