<svg width="10" height="10" viewBox="0 0 10 10" fill="none" xmlns="http://www.w3.org/2000/svg">
<path d="M1.11091 5.35352C1.00485 5.24745 0.969491 5.14139 0.969491 4.99997C0.969491 4.71712 1.18162 4.50499 1.46447 4.50499L8.53553 4.50499C8.81838 4.50499 9.03051 4.71712 9.03051 4.99997C9.03051 5.28281 8.81838 5.49494 8.53553 5.49494L1.46447 5.49494C1.32304 5.49494 1.21698 5.45958 1.11091 5.35352Z" fill="#204B9E"/>
<path d="M4.99996 8.53558C4.78783 8.32345 4.78783 8.04061 4.99996 7.82848L7.82839 5.00005L4.99996 2.17162C4.78783 1.95949 4.78783 1.67665 4.99996 1.46452C5.21209 1.25238 5.49494 1.25238 5.70707 1.46452L8.88905 4.6465C9.10118 4.85863 9.10118 5.14147 8.88905 5.3536L5.70707 8.53558C5.49494 8.74772 5.21209 8.74772 4.99996 8.53558Z" fill="#204B9E"/>
</svg>
