<svg width="171" height="26" viewBox="0 0 171 26" fill="none" xmlns="http://www.w3.org/2000/svg">
<g clip-path="url(#clip0_2200_664)">
<path d="M54.5665 12.99C54.5665 8.3975 58.1786 4.96619 62.7912 4.96619C66.1341 4.96619 68.565 6.52514 69.9672 8.95599L66.6002 10.8042C65.8207 9.37787 64.4828 8.64259 62.7872 8.64259C60.5131 8.64259 58.5764 10.4707 58.5764 12.99C58.5764 15.5092 60.5171 17.3374 62.7872 17.3374C64.4828 17.3374 65.8167 16.578 66.6002 15.1516L69.9873 16.9999C68.5851 19.4307 65.9091 21.0098 62.7872 21.0098C58.1746 21.0098 54.5625 17.5785 54.5625 12.986L54.5665 12.99Z" fill="#060D27"/>
<path d="M71.0352 15.6177C71.0352 12.7208 73.3294 10.2015 76.7647 10.2015C80.2 10.2015 82.5385 12.8092 82.2693 16.5298H74.579C74.9125 17.4218 75.6276 17.9802 76.7647 18.0003C77.6326 17.9762 78.4161 17.5985 78.7938 16.9758L81.4014 18.8481C80.3969 20.162 78.7938 21.0339 76.7647 21.0339C73.3334 21.0339 71.0352 18.5146 71.0352 15.6177ZM78.9264 14.4846C78.5688 13.7253 77.7893 13.1467 76.7647 13.1266C75.6959 13.1507 74.9366 13.7293 74.6473 14.4846H78.9264Z" fill="#060D27"/>
<path d="M83.7852 20.7888V10.4466H86.9955V10.9609C87.4415 10.5832 88.2893 10.2015 89.4464 10.2015C91.7406 10.2015 93.5487 11.9413 93.5487 14.1913V20.7888H90.2058V14.8824C90.2058 14.0346 89.7397 13.2351 88.6669 13.2351C87.775 13.2351 87.1281 13.8579 87.1281 14.8824V20.7888H83.7852Z" fill="#060D27"/>
<path d="M100.279 20.9455C97.6474 20.9455 96.3778 19.6517 96.3778 17.2892V13.2311H94.6621V10.756H94.7505C95.976 10.756 97.1371 9.48637 97.1371 8.0359V7.9917H99.7207V10.4426H102.553V13.2271H99.7207V16.6825C99.7207 17.5945 100.235 17.8879 100.946 17.8879H102.549V20.9415H100.275L100.279 20.9455Z" fill="#060D27"/>
<path d="M104.557 20.7888V10.4467H107.723V11.4512C108.325 10.6275 109.37 10.3141 110.419 10.3141H111.222V13.4561H109.953C108.571 13.4561 107.859 14.2597 107.859 15.6619V20.7888H104.561H104.557Z" fill="#060D27"/>
<path d="M111.979 17.6267C111.979 15.8427 113.381 14.6614 115.434 14.6614H117.575C118.021 14.6614 118.291 14.4405 118.291 14.0146C118.291 13.6369 117.756 13.0543 116.619 13.0543C115.639 13.0543 114.992 13.5886 114.658 14.2114L112.296 12.6967C112.963 11.3587 114.526 10.2015 116.619 10.2015C120.006 10.2015 121.501 12.6083 121.501 14.7699V20.7888H118.379V20.4312C117.889 20.7647 117.154 21.0339 115.928 21.0339C113.433 21.0339 111.983 19.495 111.983 17.6226L111.979 17.6267ZM118.242 17.0682V16.9356H116.169C115.679 16.9356 115.346 17.249 115.346 17.695C115.346 18.1611 115.792 18.4986 116.483 18.4986C117.551 18.4986 118.242 17.8075 118.242 17.0722V17.0682Z" fill="#060D27"/>
<path d="M126.845 20.9454C124.326 20.9454 122.988 19.6316 122.988 16.9114V5.18713H126.331V16.823C126.331 17.4257 126.689 17.8275 127.581 17.8275V20.9495H126.845V20.9454Z" fill="#060D27"/>
<path d="M130.256 12.99C130.256 8.3975 133.888 4.96619 138.569 4.96619C143.25 4.96619 146.906 8.3975 146.906 12.99C146.906 17.5825 143.25 21.0138 138.569 21.0138C133.888 21.0138 130.256 17.5825 130.256 12.99ZM142.892 12.99C142.892 10.539 141.088 8.64259 138.569 8.64259C136.05 8.64259 134.266 10.535 134.266 12.99C134.266 15.4449 136.094 17.3374 138.569 17.3374C141.044 17.3374 142.892 15.4449 142.892 12.99Z" fill="#060D27"/>
<path d="M148.328 20.7888V10.4466H151.538V10.9609C151.984 10.5832 152.832 10.2015 153.989 10.2015C156.284 10.2015 158.092 11.9413 158.092 14.1913V20.7888H154.749V14.8824C154.749 14.0346 154.283 13.2351 153.21 13.2351C152.318 13.2351 151.671 13.8579 151.671 14.8824V20.7888H148.328Z" fill="#060D27"/>
<path d="M159.588 15.6177C159.588 12.7208 161.882 10.2015 165.317 10.2015C168.753 10.2015 171.091 12.8092 170.822 16.5298H163.132C163.465 17.4218 164.18 17.9802 165.317 18.0003C166.185 17.9762 166.965 17.5985 167.347 16.9758L169.954 18.8481C168.95 20.162 167.347 21.0339 165.317 21.0339C161.886 21.0339 159.588 18.5146 159.588 15.6177ZM167.475 14.4846C167.117 13.7253 166.338 13.1467 165.313 13.1266C164.245 13.1507 163.485 13.7293 163.196 14.4846H167.475Z" fill="#060D27"/>
<path d="M10.9085 22.6852C6.27982 21.512 8.19236 20.2142 10.0486 19.4628C11.0853 19.041 12.2424 19.0008 13.3072 19.3544C13.3795 19.3785 13.4558 19.4026 13.5362 19.4267C13.3433 19.2338 13.1424 19.041 12.9255 18.8521C9.16068 15.5092 6.46063 17.032 4.78516 19.1012C4.93382 20.8209 5.43204 21.6446 6.00661 22.645C6.70974 23.8665 5.70526 23.762 4.974 23.2236C4.96195 23.2156 4.94989 23.2035 4.93784 23.1955C6.89055 24.7384 9.23702 25.6786 11.6759 25.9277C12.2746 25.8152 15.1996 25.2848 15.3202 25.2446C15.8545 25.0719 16.8952 24.204 10.9045 22.6812L10.9085 22.6852Z" fill="#204B9E"/>
<path d="M18.6295 3.6965C17.0625 4.18267 16.2951 4.38758 14.1977 3.92954C12.2209 3.49962 12.2811 2.95318 11.4695 2.36255C11.2726 3.56391 11.345 5.0184 12.2972 6.24788C13.4825 7.77469 15.1982 7.13584 16.1504 9.32561C16.4638 10.0488 16.3995 10.7439 16.0901 11.3306C16.3593 11.8248 16.512 12.3953 16.512 12.998C16.512 14.4043 15.6843 15.6096 14.495 16.1722C14.9089 16.2364 15.3508 16.2606 15.8008 16.2485C17.3397 16.2123 18.8384 15.8387 20.2085 15.1878C20.104 14.4726 20.0478 13.7413 20.0478 12.994C20.0478 9.87205 21 6.97111 22.6273 4.56035C21.3295 3.44337 20.1241 3.2264 18.6295 3.69248V3.6965Z" fill="#204B9E"/>
<path d="M14.0089 0.0401932C12.7874 -0.0562371 11.5419 0.0201036 10.3204 0.277251C9.76191 0.401807 9.28378 0.542434 8.886 0.662972C8.07036 0.936191 7.27079 1.29379 6.49935 1.73978C6.14176 1.94469 5.80023 2.16969 5.46674 2.40273C5.18951 2.64381 5.14129 2.75229 5.33014 2.59961C5.83238 2.18175 7.91768 1.53888 8.76948 1.57102C9.95879 1.61924 10.4771 1.71567 11.3168 2.25407C11.3731 2.29023 11.4253 2.32639 11.4735 2.36256C12.2852 2.95319 12.2249 3.49963 14.2017 3.92955C16.2951 4.38759 17.0665 4.17866 18.6335 3.69651C20.1282 3.23445 21.3335 3.4474 22.6313 4.56438C22.6715 4.50813 22.7117 4.45188 22.7479 4.39563C20.4777 1.82013 17.3156 0.301358 14.0089 0.0401932Z" fill="#2A7EC2"/>
<path d="M20.9279 18.0767C20.269 18.7999 19.5377 19.3503 18.7542 19.6155C16.9221 20.2423 14.885 19.8526 13.5269 19.4267C13.4506 19.4026 13.3742 19.3785 13.2979 19.3544C12.2372 19.0008 11.08 19.041 10.0394 19.4628C8.18308 20.2142 6.27456 21.508 10.8992 22.6852C16.8899 24.204 15.8493 25.0759 15.3149 25.2487C15.1944 25.2888 12.2693 25.8192 11.6706 25.9317C13.3461 26.1045 15.0618 25.9558 16.7252 25.4576C16.91 25.4013 17.0989 25.3411 17.2837 25.2768C18.0391 25.0116 18.7784 24.6741 19.4935 24.2602C20.7471 23.537 21.832 22.633 22.74 21.6044C21.9887 20.5236 21.3739 19.3423 20.9239 18.0807L20.9279 18.0767Z" fill="#2A7EC2"/>
<path d="M4.16179 9.00418C1.15638 11.21 5.55199 1.66343 2.78364 4.9742C2.70328 5.07063 2.62694 5.16706 2.54658 5.27153C-0.430703 9.30553 -0.924908 14.8784 1.743 19.499C2.18095 20.2624 2.69123 20.9575 3.24972 21.5923C3.76803 22.183 4.33456 22.7174 4.93725 23.1955C4.9493 23.2035 4.96135 23.2156 4.97341 23.2236C5.70467 23.762 6.70915 23.8665 6.002 22.645C5.42743 21.6446 4.92921 20.8209 4.78055 19.1012C4.7484 18.7155 4.73233 18.2896 4.73635 17.8034C4.76046 15.1717 6.30736 12.8453 6.91808 11.3547C7.87435 9.02427 6.71719 7.12781 4.16179 9.00016V9.00418Z" fill="#2A7EC2"/>
<path d="M16.0958 11.3346C15.5012 10.2337 14.34 9.48633 13.002 9.48633C11.0614 9.48633 9.48633 11.0614 9.48633 12.998C9.48633 14.9346 11.0614 16.5097 13.002 16.5097C13.5364 16.5097 14.0427 16.3851 14.4967 16.1722C15.69 15.6096 16.5137 14.4003 16.5137 12.998C16.5137 12.3953 16.361 11.8288 16.0918 11.3306L16.0958 11.3346Z" fill="#2A7EC2"/>
<path d="M35.168 26.004C42.3488 26.004 48.17 20.1828 48.17 13.002C48.17 5.8212 42.3488 0 35.168 0C27.9872 0 22.166 5.8212 22.166 13.002C22.166 20.1828 27.9872 26.004 35.168 26.004Z" fill="#204B9E"/>
</g>
<defs>
<clipPath id="clip0_2200_664">
<rect width="170.842" height="26" fill="white"/>
</clipPath>
</defs>
</svg>
