<?xml version="1.0" encoding="UTF-8"?>
<svg id="_レイヤー_1" xmlns="http://www.w3.org/2000/svg" xmlns:xlink="http://www.w3.org/1999/xlink" version="1.1" viewBox="0 0 500 500">
  <!-- Generator: Adobe Illustrator 29.7.1, SVG Export Plug-In . SVG Version: 2.1.1 Build 8)  -->
  <defs>
    <style>
      .st0 {
        fill: none;
      }

      .st1 {
        fill: #2a7ec1;
      }

      .st2 {
        clip-path: url(#clippath);
      }

      .st3 {
        fill: #1f4a9d;
      }
    </style>
    <clipPath id="clippath">
      <path class="st0" d="M375,466.5c-13.8,8-28,14.5-42.5,19.5-111.2,39-237.9-5.3-298.9-111C-35.5,255.4,5.5,102.5,125,33.5,244.6-35.5,397.5,5.5,466.5,125c69,119.6,28.1,272.4-91.5,341.5Z"/>
    </clipPath>
  </defs>
  <g class="st2">
    <g>
      <path class="st3" d="M60.4,450.7c-5.4-6.1-6.9-14.7-3.8-22.1,16.9-41,79.9-165.5,191.9-66,101.1,89.8,88.7,201,19.8,194.8-79.9-7.2-143.3-33.8-207.9-106.7h0Z"/>
      <path class="st3" d="M271,.4s0,0-.1,0c-18.9,3.9-45.3,18.1-49.7,41.8-4.4,23.7-3.9,53.2,15.3,77.9,22.8,29.4,55.8,17.1,74.1,59.2,14.9,34.3-14.5,65.4-49.6,70.6s-46.7,26.7-7.3,52.4c12.7,8.3,31,10.7,50.1,10.2,55.6-1.4,108.6-25.2,147-65.4,23.2-24.2,42-54.4,33.6-84-18.6-65.6,72.4-46.3-76.9-141.1C270.5-65,320.1-16.4,271,.4Z"/>
      <path class="st1" d="M273.1,75.7c40.3,8.8,55.1,4.8,85.2-4.5,33.3-10.3,59.2-3.2,88.9,28.2,21,22.1-2.8-14.4-38-46.3-16.1-14.6-34.8-27.7-52.5-34.2C264.3-14.8,203.4,3,170.8,12.9c-55.5,16.8-77.8,45.2-68.2,37.2,9.6-8,49.8-20.4,66.1-19.7,22.9.9,32.8,2.8,48.9,13.2,18.9,12.1,15.2,23.4,55.5,32.2h0Z"/>
      <path class="st1" d="M499.1,270.2c7.8-69.1-24-144.1-29.2-81.8-5.2,62.4-49.6,168.4-109.2,188.8-37.3,12.7-78.9,3.6-104.9-5-20.4-6.8-42.7-6-62.6,2.1-35.7,14.5-72.4,39.4,16.6,62,115.2,29.2,95.1,46,84.9,49.3-2.5.8-69.5,12.9-72.1,13.5-8.2,1.9,35.6,5.9,88.4-.6,60.7-7.5,112.6-53.3,136-81.2,22.1-26.4,44.3-77.9,52.1-147h0Z"/>
      <path class="st1" d="M115.5,435.5c-13.6-23.5-24.8-42-24.4-93.1.4-50.6,30.2-95.3,42-124,18.4-44.8-3.9-81.3-53-45.3-57.8,42.4,26.8-141.1-26.5-77.5-5.1,6.1-10.3,13.1-15.3,20.7-.9,1.4-1.8,2.8-2.7,4.2-.2.3-.4.7-.6,1-45.9,75.3-50.5,172.6-3.7,254.5.6,1,1.2,1.9,1.8,2.9,3.1,5.3,6.4,10.4,9.8,15.4.5.8,1.1,1.6,1.6,2.4,14.4,20.3,37.1,39.6,51.2,49.9,14.1,10.3,33.4,12.4,19.8-11.1h0Z"/>
    </g>
  </g>
  <circle class="st1" cx="250" cy="250" r="67.6"/>
</svg>